<?xml version="1.0" encoding="UTF-8"?>
<svg version="1.1" xmlns="http://www.w3.org/2000/svg" width="349" height="324">
<path d="M0 0 C2.1875 1.875 2.1875 1.875 3 5 C1.82203236 10.50042742 -0.94215165 15.10849414 -4.22265625 19.609375 C-8.12356861 25.09821089 -11.6188454 30.77856021 -15.0625 36.5625 C-16.03195557 38.18671875 -16.03195557 38.18671875 -17.02099609 39.84375 C-26.54814338 55.88849549 -35.60445497 72.1844865 -44.3125 88.6875 C-44.87018066 89.73292969 -45.42786133 90.77835937 -46.00244141 91.85546875 C-46.51339355 92.83515625 -47.0243457 93.81484375 -47.55078125 94.82421875 C-48.22620972 96.10945435 -48.22620972 96.10945435 -48.9152832 97.4206543 C-50.11646275 100.27693652 -50.60283188 102.93585211 -51 106 C-45.93516572 108.00537871 -41.44281847 108.36817849 -36.078125 108.52734375 C-34.31119409 108.59821201 -32.54426714 108.66917893 -30.77734375 108.74023438 C-28.03347427 108.84005119 -25.28952269 108.93616212 -22.54541016 109.02905273 C-11.48071682 109.41681051 -0.76676153 110.25152707 10.12597656 112.28344727 C13.74756459 112.95330868 17.35187264 113.50455693 21 114 C21 114.66 21 115.32 21 116 C22.62701782 117.33938366 22.62701782 117.33938366 24.6875 118.6875 C30.99111397 123.28411762 34.52566707 128.22624456 36 136 C37.0578003 148.24347576 33.32434568 157.3514174 25.72265625 166.84375 C15.56141752 178.45659426 3.14599401 187.47751352 -9.203125 196.61669922 C-14.0572111 200.22979234 -18.6888464 204.04092597 -23.27148438 207.98999023 C-28.0215839 212.06814245 -32.95592424 215.87101114 -37.9375 219.66015625 C-42.3517773 223.03279924 -46.67478783 226.51442935 -51 230 C-52.66615618 231.33397119 -54.33282754 232.66729915 -56 234 C-56.83144531 234.66515625 -57.66289062 235.3303125 -58.51953125 236.015625 C-65.6875 241.75 -65.6875 241.75 -68.17578125 243.73828125 C-70.30119425 245.44037548 -72.42316173 247.14642018 -74.54296875 248.85546875 C-81.20972164 254.22239826 -87.91745619 259.50245412 -94.79296875 264.6015625 C-97.19017784 266.38408311 -99.56178649 268.1971022 -101.92578125 270.0234375 C-109.27183611 275.69699112 -116.66711697 281.27038776 -124.25 286.625 C-125.30417114 287.37003784 -125.30417114 287.37003784 -126.37963867 288.13012695 C-136.81892652 295.44409201 -136.81892652 295.44409201 -142 295 C-142.75 292.875 -142.75 292.875 -143 290 C-141.78107865 287.72114704 -140.59848988 286.00139691 -139 284 C-138.41605469 283.25621094 -137.83210938 282.51242187 -137.23046875 281.74609375 C-135.17064274 279.14998168 -133.08703828 276.57426964 -131 274 C-129.7487288 272.43851781 -128.49873055 270.87601471 -127.25 269.3125 C-124.9342823 266.41446732 -122.61406929 263.52024314 -120.28515625 260.6328125 C-114.79638254 253.81647884 -109.38161107 246.94978745 -104.0625 240 C-103.53116455 239.30640381 -102.9998291 238.61280762 -102.45239258 237.89819336 C-100.95890429 235.93895045 -99.47588841 233.97252861 -98 232 C-97.50870605 231.34515625 -97.01741211 230.6903125 -96.51123047 230.015625 C-93.8960052 226.84154073 -93.8960052 226.84154073 -93 223 C-92.01 222.67 -91.02 222.34 -90 222 C-88.5030532 220.3843314 -88.5030532 220.3843314 -87.109375 218.3515625 C-86.29702393 217.2222229 -86.29702393 217.2222229 -85.46826172 216.07006836 C-84.90123535 215.2631958 -84.33420898 214.45632324 -83.75 213.625 C-82.87819092 212.39632202 -82.87819092 212.39632202 -81.98876953 211.14282227 C-80.31408075 208.7698393 -78.65373226 206.38762166 -77 204 C-76.59040039 203.4117041 -76.18080078 202.8234082 -75.75878906 202.21728516 C-69.01876627 192.47140335 -69.01876627 192.47140335 -67.1875 181.0625 C-70.25250749 177.57473286 -74.53466215 177.5690423 -79 177 C-83.35672137 176.74898099 -87.70452933 176.68097943 -92.06807899 176.66447449 C-94.22753745 176.65604804 -96.38659986 176.63542038 -98.54594421 176.61193848 C-103.13473578 176.56412155 -107.72356781 176.53096072 -112.3125 176.5 C-117.62839012 176.46404401 -122.94408387 176.42171676 -128.25978661 176.36405945 C-130.36269886 176.34434149 -132.46545144 176.33574417 -134.56843567 176.32775879 C-149.05763011 176.17917855 -164.16228976 175.46952946 -175.2421875 165.0625 C-180.98046983 158.32958206 -183.34664789 150.67952649 -183 141.9375 C-181.89323366 130.10976811 -175.04705955 122.08852246 -166.29296875 114.64453125 C-161.92285263 111.07040523 -157.34037841 107.8130715 -152.703125 104.59765625 C-148.72465024 101.83293542 -144.8625597 98.92350767 -141 96 C-132.44681643 89.54903482 -123.73818367 83.33699082 -114.98046875 77.16796875 C-113.57026315 76.17454922 -112.1601078 75.18105835 -110.75 74.1875 C-109.68362305 73.43617798 -109.68362305 73.43617798 -108.59570312 72.66967773 C-101.10765245 67.38522942 -93.68302728 62.01429344 -86.26171875 56.63671875 C-84.02060267 55.01490936 -81.77648685 53.39734868 -79.53125 51.78125 C-72.58813906 46.78132961 -65.66351068 41.76067797 -58.79003906 36.6652832 C-51.57357358 31.31567328 -44.30219595 26.09351553 -36.86474609 21.05566406 C-31.29929033 17.26313742 -25.91503229 13.25208135 -20.57739258 9.14599609 C-6.84415448 -1.34199107 -6.84415448 -1.34199107 0 0 Z " fill="#FD7D50" transform="translate(232,10)"/>
<path d="M0 0 C3.28036677 2.40026837 4.33836148 3.98655999 5.5625 7.875 C6.6142114 18.08278708 -0.32621136 27.50568319 -6.45532227 35.06445312 C-11.03067811 40.49665549 -15.82493476 45.50740377 -21.4375 49.875 C-22.35273438 50.59171875 -23.26796875 51.3084375 -24.2109375 52.046875 C-55.40224861 75.94150407 -92.78359983 90.09902543 -132.4375 87.875 C-135.5234375 87.36328125 -135.5234375 87.36328125 -137.4375 86.875 C-133.60132308 83.61607637 -129.63600198 81.16069702 -125.25 78.75 C-120.54906588 76.23078382 -120.54906588 76.23078382 -116.4375 72.875 C-114.90845899 71.89664809 -113.36408025 70.94219828 -111.8125 70 C-104.74100626 65.54689508 -98.15005029 60.50570899 -91.50488281 55.44677734 C-88.22188063 52.95079624 -84.92400534 50.47476941 -81.625 48 C-80.9745874 47.51128418 -80.3241748 47.02256836 -79.65405273 46.51904297 C-75.2112247 43.18651712 -70.74196667 39.89164587 -66.26245117 36.60864258 C-59.87719474 31.92739379 -53.52147012 27.22605399 -47.3125 22.3125 C-46.76480957 21.87977783 -46.21711914 21.44705566 -45.65283203 21.0012207 C-43.21760179 19.07566507 -40.78317934 17.14910091 -38.35058594 15.22021484 C-13.49473482 -4.41645867 -13.49473482 -4.41645867 0 0 Z " fill="#0280C6" transform="translate(256.4375,223.125)"/>
<path d="M0 0 C2.1875 1.875 2.1875 1.875 3 5 C1.82203236 10.50042742 -0.94215165 15.10849414 -4.22265625 19.609375 C-8.12360446 25.09826134 -11.61824717 30.77886783 -15.0625 36.5625 C-15.70010254 37.62863525 -16.33770508 38.69477051 -16.99462891 39.79321289 C-27.95091965 58.1486067 -27.95091965 58.1486067 -38 77 C-38.66 77 -39.32 77 -40 77 C-38.73911559 72.91084793 -37.22235254 69.30706579 -35.12890625 65.578125 C-34.55994629 64.56129639 -33.99098633 63.54446777 -33.40478516 62.49682617 C-32.79683105 61.42537354 -32.18887695 60.3539209 -31.5625 59.25 C-30.93649902 58.14052002 -30.31049805 57.03104004 -29.66552734 55.88793945 C-22.42764293 43.12727857 -14.83964155 30.65732058 -6.66015625 18.48046875 C-1.77857075 11.41548727 -1.77857075 11.41548727 -1 3 C-6.40893957 2.16785545 -9.18368824 4.03701093 -13.41015625 7.046875 C-16.84359076 9.63619213 -20.2490149 12.26057572 -23.64111328 14.90380859 C-30.24884553 20.02551007 -37.11322284 24.77926178 -43.96142578 29.57128906 C-52.49924002 35.55491648 -60.93113276 41.67443858 -69.3125 47.875 C-75.58736156 52.51189629 -81.88736094 57.1091245 -88.25 61.625 C-89.26767456 62.35178955 -89.26767456 62.35178955 -90.3059082 63.09326172 C-94.41477285 65.99357654 -98.59599341 68.56980984 -103 71 C-101.67908291 67.94233658 -100.46795581 66.30979489 -97.71875 64.44140625 C-97.05117676 63.98008301 -96.38360352 63.51875977 -95.69580078 63.04345703 C-94.97118652 62.55474121 -94.24657227 62.06602539 -93.5 61.5625 C-91.94462914 60.48927093 -90.38996385 59.41501873 -88.8359375 58.33984375 C-88.03381836 57.78796387 -87.23169922 57.23608398 -86.40527344 56.66748047 C-82.609428 54.03597171 -78.86571477 51.33406414 -75.125 48.625 C-74.3839502 48.08963623 -73.64290039 47.55427246 -72.87939453 47.00268555 C-68.15977669 43.58606394 -63.46886659 40.13233427 -58.7878418 36.66308594 C-51.57139247 31.31518805 -44.30135993 26.09294924 -36.86474609 21.05566406 C-31.29929033 17.26313742 -25.91503229 13.25208135 -20.57739258 9.14599609 C-6.84415448 -1.34199107 -6.84415448 -1.34199107 0 0 Z " fill="#FB6D2E" transform="translate(232,10)"/>
<path d="M0 0 C0.99 0.495 0.99 0.495 2 1 C-3.57255926 6.14503487 -9.36401377 10.92437127 -15.34765625 15.57495117 C-19.995496 19.19247857 -24.56824063 22.89363026 -29.125 26.625 C-34.59942349 31.09597428 -40.14308766 35.43440061 -45.828125 39.63671875 C-48.21019156 41.41153435 -50.57150596 43.20359405 -52.921875 45.01953125 C-60.2687382 50.69506609 -67.66561037 56.26932389 -75.25 61.625 C-75.95278076 62.12169189 -76.65556152 62.61838379 -77.37963867 63.13012695 C-87.81892652 70.44409201 -87.81892652 70.44409201 -93 70 C-93.75 67.875 -93.75 67.875 -94 65 C-92.77954913 62.71828751 -91.60209052 61.00261315 -90 59 C-89.38125 58.22140625 -88.7625 57.4428125 -88.125 56.640625 C-86.74478184 54.9153523 -85.35799451 53.1953154 -83.96484375 51.48046875 C-82.25860271 49.32646664 -80.67480532 47.14222262 -79.125 44.875 C-78.42375 43.92625 -77.7225 42.9775 -77 42 C-76.34 42 -75.68 42 -75 42 C-76.41170088 46.18980742 -78.43840059 48.97468034 -81.3125 52.3125 C-87.8664937 59.38463134 -87.8664937 59.38463134 -91 68 C-84.68788395 65.20810252 -79.53187979 61.55156344 -74.06640625 57.3515625 C-71.28764944 55.22059231 -68.47224795 53.16294183 -65.625 51.125 C-60.83209479 47.65545774 -56.18512352 44.02772504 -51.55004883 40.35253906 C-47.02937899 36.77916814 -42.43642584 33.31336002 -37.8125 29.875 C-32.19881601 25.69568493 -26.71430231 21.4128372 -21.33203125 16.9375 C-20.56246094 16.298125 -19.79289062 15.65875 -19 15 C-18.11699219 14.2575 -17.23398438 13.515 -16.32421875 12.75 C-14 11 -14 11 -12 11 C-12 10.34 -12 9.68 -12 9 C-10.03062339 7.37643654 -8.06654852 5.86440434 -6 4.375 C-5.14148438 3.74464844 -5.14148438 3.74464844 -4.265625 3.1015625 C-2.84796067 2.06194199 -1.42450738 1.03022409 0 0 Z " fill="#F26C31" transform="translate(183,235)"/>
<path d="M0 0 C0.54527344 0.26554688 1.09054688 0.53109375 1.65234375 0.8046875 C2.40644531 1.15789062 3.16054687 1.51109375 3.9375 1.875 C4.66839844 2.22304687 5.39929688 2.57109375 6.15234375 2.9296875 C14.95031695 6.23647029 23.53633677 6.3216157 32.82421875 6.37890625 C34.25756408 6.39512939 35.69089882 6.41231418 37.1242218 6.43040466 C40.88177494 6.47582568 44.63934385 6.51073818 48.39703369 6.54260254 C54.39085641 6.59467135 60.3845176 6.6607091 66.37815285 6.73081779 C68.4460732 6.75319586 70.51397519 6.7697624 72.58195496 6.78553772 C97.05573837 7.04121559 97.05573837 7.04121559 102 10 C98.28072678 11.24632106 95.00910378 10.90300309 91.13330078 10.57788086 C83.70791035 10.00569966 76.3151641 9.81900688 68.8671875 9.75390625 C66.91110527 9.72939192 64.95502312 9.70486633 62.99894905 9.67970943 C58.26321205 9.61985509 53.52740375 9.5682405 48.79150391 9.52319336 C44.81659372 9.48486762 40.8419312 9.4317698 36.8671875 9.37890625 C35.66891327 9.3704921 34.47063904 9.36207794 33.23605347 9.35340881 C21.50300961 9.18388877 10.71724015 7.98363763 0 3 C0 2.01 0 1.02 0 0 Z " fill="#FA6C32" transform="translate(63,177)"/>
<path d="M0 0 C0.99 0.495 0.99 0.495 2 1 C-3.78877446 5.83583124 -9.75951383 10.30503872 -15.9375 14.625 C-25.4134412 21.25380477 -34.73394222 28.08131563 -44 35 C-44.64018066 35.47743652 -45.28036133 35.95487305 -45.93994141 36.44677734 C-49.67297765 39.2412332 -53.35544803 42.09031682 -57 45 C-57.92554687 45.73476562 -58.85109375 46.46953125 -59.8046875 47.2265625 C-65.27985771 51.82440573 -68.72519053 56.26921648 -71.84375 62.71484375 C-73 65 -73 65 -75 67 C-74.82390535 58.89964595 -70.25994488 53.39915961 -64.8046875 47.7109375 C-59.19790364 42.47423838 -53.04756892 38.05305109 -46.7734375 33.66796875 C-42.78040279 30.86824273 -38.88913708 27.94158482 -35 25 C-23.54549433 16.36127316 -11.82021453 8.12885185 0 0 Z " fill="#FC6C2E" transform="translate(126,81)"/>
<path d="M0 0 C10.00540767 -0.37598609 18.24262918 0.27694529 26 7 C32.47110038 13.2862118 36.02631456 19.35796495 36.3125 28.5 C35.87112953 38.68683039 32.66291489 47.90894443 25 55 C24.34 54.67 23.68 54.34 23 54 C23.47050781 53.35933594 23.94101563 52.71867187 24.42578125 52.05859375 C31.67524639 41.98739063 34.27948003 34.59062794 33 22 C31.98541737 18.90598 30.76339229 16.77867875 29 14 C28.67 13.01 28.34 12.02 28 11 C25.1798062 9.28773948 22.07044129 8.1940605 19 7 C19 6.34 19 5.68 19 5 C12.73 3.68 6.46 2.36 0 1 C0 0.67 0 0.34 0 0 Z " fill="#F96A2D" transform="translate(232,122)"/>
<path d="M0 0 C3.28036677 2.40026837 4.33836148 3.98655999 5.5625 7.875 C6.53922052 17.35493442 0.51521101 26.23286311 -5.125 33.375 C-7.49289751 36.27021475 -9.94228225 39.08858984 -12.4375 41.875 C-13.0975 41.545 -13.7575 41.215 -14.4375 40.875 C-13.80134766 40.20017578 -13.80134766 40.20017578 -13.15234375 39.51171875 C-5.62678928 31.25841836 1.91946576 21.59141083 2.875 10.125 C2.55141133 6.14935819 2.55141133 6.14935819 0.5625 2.875 C-3.82160994 0.8358791 -7.65208929 0.31670208 -12.4375 0.875 C-15.14788551 2.08142723 -17.71818543 3.41952209 -20.30078125 4.87890625 C-21.00589844 5.20761719 -21.71101562 5.53632813 -22.4375 5.875 C-23.0975 5.545 -23.7575 5.215 -24.4375 4.875 C-23.16918307 4.05857746 -21.89774069 3.24700895 -20.625 2.4375 C-19.91730469 1.98503906 -19.20960938 1.53257812 -18.48046875 1.06640625 C-12.80439565 -2.24373198 -6.09920828 -1.99610453 0 0 Z " fill="#2171A2" transform="translate(256.4375,223.125)"/>
<path d="M0 0 C0 3.85361357 -1.20835181 4.99962406 -3.5 8.0625 C-4.23863281 9.04992187 -4.97726563 10.03734375 -5.73828125 11.0546875 C-9.09411731 15.42480908 -12.52293951 19.72587249 -16 24 C-17.09668957 25.35910442 -18.19301502 26.71850271 -19.2890625 28.078125 C-20.46333372 29.53141805 -21.63781347 30.98454263 -22.8125 32.4375 C-23.37606201 33.13641357 -23.93962402 33.83532715 -24.52026367 34.55541992 C-25.05627197 35.21646729 -25.59228027 35.87751465 -26.14453125 36.55859375 C-26.62253174 37.14954834 -27.10053223 37.74050293 -27.59301758 38.34936523 C-28.98899498 39.9870892 -30.45769248 41.50043147 -32 43 C-31.39854629 39.8973167 -30.4453546 37.94393336 -28.515625 35.453125 C-27.9985498 34.78055664 -27.48147461 34.10798828 -26.94873047 33.41503906 C-26.38814941 32.70057617 -25.82756836 31.98611328 -25.25 31.25 C-24.67523926 30.50717773 -24.10047852 29.76435547 -23.50830078 28.99902344 C-18.8489687 23.00682619 -14.07747507 17.10549903 -9.22753906 11.26660156 C-6.50091879 7.96197219 -4.19856854 4.68704041 -2 1 C-1.34 0.67 -0.68 0.34 0 0 Z " fill="#FB6D2D" transform="translate(141,234)"/>
<path d="M0 0 C0.66 0.33 1.32 0.66 2 1 C1.76443423 15.13394609 -8.9084625 26.31178088 -16.98828125 37.16796875 C-17.51977783 37.88235107 -18.05127441 38.5967334 -18.59887695 39.33276367 C-20 41 -20 41 -22 42 C-21.38670983 38.73442307 -20.26489963 36.69866402 -18.26953125 34.05859375 C-17.71628174 33.31536865 -17.16303223 32.57214355 -16.59301758 31.80639648 C-16.00544678 31.02466064 -15.41787598 30.2429248 -14.8125 29.4375 C-7.94272058 20.0905243 -1.90909336 11.64546947 0 0 Z " fill="#FC6D31" transform="translate(166,190)"/>
<path d="M0 0 C0 0.99 0 1.98 0 3 C-2.0625 5.05859375 -2.0625 5.05859375 -5 7.4375 C-5.52674316 7.86635498 -6.05348633 8.29520996 -6.59619141 8.73706055 C-11.75501038 12.89521446 -17.06049283 16.86556187 -22.390625 20.80053711 C-23.03257812 21.27499268 -23.67453125 21.74944824 -24.3359375 22.23828125 C-25.2635791 22.92204834 -25.2635791 22.92204834 -26.20996094 23.61962891 C-27.97719237 24.98241212 -29.62569476 26.43139148 -31.2890625 27.91796875 C-32.18367187 28.60503906 -33.07828125 29.29210937 -34 30 C-34.99 29.67 -35.98 29.34 -37 29 C-36.01 28.67 -35.02 28.34 -34 28 C-34 27.34 -34 26.68 -34 26 C-32.24035652 24.53809653 -30.41433225 23.15571415 -28.5625 21.8125 C-27.44743949 20.99544248 -26.33285938 20.17772896 -25.21875 19.359375 C-24.1565625 18.58078125 -23.094375 17.8021875 -22 17 C-20.51511434 15.86158766 -19.03527359 14.716539 -17.5625 13.5625 C-13.70245224 10.54283164 -9.82315811 7.54908436 -5.9375 4.5625 C-5.35234619 4.11269775 -4.76719238 3.66289551 -4.16430664 3.19946289 C-2.7763551 2.13277918 -1.38819981 1.06636059 0 0 Z " fill="#F56A33" transform="translate(245,186)"/>
<path d="M0 0 C3.4375 0.5 3.4375 0.5 5.625 2.375 C6.94186072 7.43984891 4.8375744 11.0176989 2.4375 15.5 C-0.77083867 20.66734731 -4.16988126 25.2807741 -8.5625 29.5 C-7.28232978 24.09483684 -4.45249877 20.26563392 -1.21875 15.8671875 C1.8321008 11.50677338 2.6819173 8.87718054 2.4375 3.5 C-0.8625 3.5 -4.1625 3.5 -7.5625 3.5 C-3.5625 0.5 -3.5625 0.5 0 0 Z " fill="#F86830" transform="translate(228.5625,9.5)"/>
<path d="M0 0 C0.33 0 0.66 0 1 0 C1.09796875 0.9178125 1.1959375 1.835625 1.296875 2.78125 C2.59346964 13.42226812 4.87316585 20.08129539 12 28 C9.09396023 27.6886386 8.06419143 27.06619741 6 24.9375 C0.8937507 17.43769634 -1.34575816 11.16259128 -1 2 C-0.67 1.34 -0.34 0.68 0 0 Z " fill="#F86A35" transform="translate(50,149)"/>
<path d="M0 0 C0.33 0 0.66 0 1 0 C0.25975758 11.59713126 -7.70984107 19.63401179 -15 28 C-15.66 27.67 -16.32 27.34 -17 27 C-16.57589844 26.55011719 -16.15179688 26.10023438 -15.71484375 25.63671875 C-8.76575572 18.015631 -3.16486694 9.86693811 0 0 Z " fill="#106BA3" transform="translate(259,237)"/>
<path d="M0 0 C0.66 0.33 1.32 0.66 2 1 C-2.6024647 5.20990153 -7.37742557 9.18605553 -12.3125 13 C-13.82263672 14.175625 -13.82263672 14.175625 -15.36328125 15.375 C-16.23339844 15.91125 -17.10351562 16.4475 -18 17 C-18.99 16.67 -19.98 16.34 -21 16 C-14.07630302 10.5624501 -7.05541442 5.2647001 0 0 Z " fill="#F36733" transform="translate(206,217)"/>
<path d="M0 0 C0 0.66 0 1.32 0 2 C0.66 2.66 1.32 3.32 2 4 C-0.76452033 5.38226016 -3.0461363 5.09525387 -6.125 5.0625 C-7.22070312 5.05347656 -8.31640625 5.04445313 -9.4453125 5.03515625 C-10.70988281 5.01775391 -10.70988281 5.01775391 -12 5 C-7.65430977 1.45483165 -5.6329135 -0.14823457 0 0 Z " fill="#0E83C1" transform="translate(131,305)"/>
<path d="M0 0 C0.66 0 1.32 0 2 0 C2.6509259 1.24735567 3.29551669 2.49801832 3.9375 3.75 C4.29714844 4.44609375 4.65679687 5.1421875 5.02734375 5.859375 C6.70885452 9.56004931 7.12205095 12.70053513 7.0625 16.75 C7.05347656 17.54921875 7.04445313 18.3484375 7.03515625 19.171875 C7.01775391 20.07679688 7.01775391 20.07679688 7 21 C6.34 21 5.68 21 5 21 C4.97421875 20.29875 4.9484375 19.5975 4.921875 18.875 C4.5230575 12.20387098 3.27239834 7.80586802 0 2 C0 1.34 0 0.68 0 0 Z " fill="#F36937" transform="translate(261,134)"/>
<path d="M0 0 C0.33 0 0.66 0 1 0 C1 2.31 1 4.62 1 7 C1.763125 6.649375 2.52625 6.29875 3.3125 5.9375 C6 5 6 5 9 6 C5.48812804 8.40814077 3.27343092 9.36629408 -1 9 C-1.80967438 6.08517222 -2.21845993 4.53886783 -1.0625 1.6875 C-0.711875 1.130625 -0.36125 0.57375 0 0 Z " fill="#E06D42" transform="translate(91,296)"/>
<path d="M0 0 C3.4375 0.5 3.4375 0.5 5.375 3 C5.725625 3.825 6.07625 4.65 6.4375 5.5 C5.7775 6.16 5.1175 6.82 4.4375 7.5 C3.7775 6.18 3.1175 4.86 2.4375 3.5 C-0.8625 3.5 -4.1625 3.5 -7.5625 3.5 C-3.5625 0.5 -3.5625 0.5 0 0 Z " fill="#E96436" transform="translate(228.5625,9.5)"/>
<path d="M0 0 C-1.48781815 3.78717347 -3.61988409 5.77407001 -7 8 C-7.99 7.67 -8.98 7.34 -10 7 C-8.71372289 5.82739389 -7.42080217 4.6620717 -6.125 3.5 C-5.04605469 2.52546875 -5.04605469 2.52546875 -3.9453125 1.53125 C-2 0 -2 0 0 0 Z " fill="#F5682C" transform="translate(140,270)"/>
<path d="M0 0 C-1.29299694 2.88437779 -2.65941363 4.87219421 -5 7 C-5.99 6.67 -6.98 6.34 -8 6 C-7.0479279 4.99403703 -6.08812654 3.99538437 -5.125 3 C-4.59132812 2.443125 -4.05765625 1.88625 -3.5078125 1.3125 C-2 0 -2 0 0 0 Z " fill="#F56833" transform="translate(255,178)"/>
<path d="M0 0 C0.99 1.485 0.99 1.485 2 3 C1.34 3 0.68 3 0 3 C0 2.01 0 1.02 0 0 Z " fill="#FF9F54" transform="translate(163,190)"/>
<path d="M0 0 C0.33 0.99 0.66 1.98 1 3 C0.34 2.67 -0.32 2.34 -1 2 C-0.67 1.34 -0.34 0.68 0 0 Z " fill="#FFE915" transform="translate(48,158)"/>
<path d="M0 0 C3 1 3 1 3 1 Z " fill="#718D8D" transform="translate(127,312)"/>
<path d="M0 0 C0.99 0.495 0.99 0.495 2 1 C1.01 1.495 1.01 1.495 0 2 C0 1.34 0 0.68 0 0 Z " fill="#FFFF00" transform="translate(126,249)"/>
<path d="" fill="#3FBFBF" transform="translate(0,0)"/>
<path d="M0 0 C2 1 2 1 2 1 Z " fill="#D4946A" transform="translate(134,277)"/>
<path d="" fill="#FFD42A" transform="translate(0,0)"/>
<path d="M0 0 C2 1 2 1 2 1 Z " fill="#3FBFBF" transform="translate(222,233)"/>
<path d="M0 0 C2 1 2 1 2 1 Z " fill="#6A9494" transform="translate(252,220)"/>
<path d="" fill="#FFBF3F" transform="translate(0,0)"/>
<path d="" fill="#FFBF3F" transform="translate(0,0)"/>
<path d="" fill="#000000" transform="translate(0,0)"/>
<path d="" fill="#00FFFF" transform="translate(0,0)"/>
<path d="" fill="#00FFFF" transform="translate(0,0)"/>
<path d="" fill="#7F7F7F" transform="translate(0,0)"/>
<path d="" fill="#000000" transform="translate(0,0)"/>
<path d="" fill="#0000FF" transform="translate(0,0)"/>
<path d="" fill="#00FFFF" transform="translate(0,0)"/>
<path d="" fill="#00FFFF" transform="translate(0,0)"/>
<path d="" fill="#FFFF00" transform="translate(0,0)"/>
<path d="" fill="#0000FF" transform="translate(0,0)"/>
<path d="" fill="#00FFFF" transform="translate(0,0)"/>
<path d="" fill="#007F7F" transform="translate(0,0)"/>
<path d="" fill="#7F7F7F" transform="translate(0,0)"/>
<path d="" fill="#7F7F7F" transform="translate(0,0)"/>
<path d="" fill="#00FFFF" transform="translate(0,0)"/>
<path d="" fill="#00FFFF" transform="translate(0,0)"/>
<path d="" fill="#7F7F7F" transform="translate(0,0)"/>
<path d="" fill="#FF7F7F" transform="translate(0,0)"/>
<path d="" fill="#0000FF" transform="translate(0,0)"/>
<path d="" fill="#00FFFF" transform="translate(0,0)"/>
<path d="" fill="#7F7F7F" transform="translate(0,0)"/>
<path d="" fill="#55AAAA" transform="translate(0,0)"/>
<path d="" fill="#00FFFF" transform="translate(0,0)"/>
<path d="" fill="#0000FF" transform="translate(0,0)"/>
<path d="" fill="#FFFF00" transform="translate(0,0)"/>
<path d="" fill="#00FFFF" transform="translate(0,0)"/>
<path d="" fill="#FFFF00" transform="translate(0,0)"/>
<path d="" fill="#FF7F7F" transform="translate(0,0)"/>
<path d="" fill="#0000FF" transform="translate(0,0)"/>
<path d="" fill="#00FFFF" transform="translate(0,0)"/>
<path d="" fill="#7F7F7F" transform="translate(0,0)"/>
<path d="" fill="#FFFF00" transform="translate(0,0)"/>
<path d="" fill="#FFFF00" transform="translate(0,0)"/>
<path d="" fill="#00FFFF" transform="translate(0,0)"/>
<path d="" fill="#FFFF00" transform="translate(0,0)"/>
<path d="" fill="#7F7F7F" transform="translate(0,0)"/>
<path d="" fill="#00FFFF" transform="translate(0,0)"/>
<path d="" fill="#FF7F7F" transform="translate(0,0)"/>
<path d="" fill="#00FFFF" transform="translate(0,0)"/>
<path d="" fill="#7F7F7F" transform="translate(0,0)"/>
<path d="" fill="#0000FF" transform="translate(0,0)"/>
<path d="" fill="#7F7F7F" transform="translate(0,0)"/>
<path d="" fill="#AAAA55" transform="translate(0,0)"/>
<path d="" fill="#00FFFF" transform="translate(0,0)"/>
<path d="" fill="#00FFFF" transform="translate(0,0)"/>
<path d="" fill="#7F7F7F" transform="translate(0,0)"/>
<path d="" fill="#00FFFF" transform="translate(0,0)"/>
<path d="" fill="#7F7F7F" transform="translate(0,0)"/>
<path d="" fill="#FFAA55" transform="translate(0,0)"/>
<path d="" fill="#FF00FF" transform="translate(0,0)"/>
<path d="" fill="#FF7F7F" transform="translate(0,0)"/>
<path d="" fill="#FFFF00" transform="translate(0,0)"/>
<path d="" fill="#FFFF00" transform="translate(0,0)"/>
<path d="" fill="#FF7F7F" transform="translate(0,0)"/>
<path d="" fill="#FFAA55" transform="translate(0,0)"/>
<path d="" fill="#FFFF00" transform="translate(0,0)"/>
<path d="" fill="#FFFF00" transform="translate(0,0)"/>
<path d="" fill="#FF00FF" transform="translate(0,0)"/>
<path d="" fill="#FFAA55" transform="translate(0,0)"/>
<path d="" fill="#7F7F7F" transform="translate(0,0)"/>
<path d="" fill="#FF00FF" transform="translate(0,0)"/>
<path d="" fill="#FFAA55" transform="translate(0,0)"/>
<path d="" fill="#FF7F7F" transform="translate(0,0)"/>
<path d="" fill="#FF00FF" transform="translate(0,0)"/>
<path d="" fill="#FFFF00" transform="translate(0,0)"/>
<path d="" fill="#FF00FF" transform="translate(0,0)"/>
<path d="" fill="#FF7F7F" transform="translate(0,0)"/>
<path d="" fill="#FFFF00" transform="translate(0,0)"/>
<path d="" fill="#FFFF00" transform="translate(0,0)"/>
<path d="" fill="#FFFF00" transform="translate(0,0)"/>
<path d="" fill="#FF7F7F" transform="translate(0,0)"/>
<path d="" fill="#FFFF00" transform="translate(0,0)"/>
<path d="" fill="#FFAA55" transform="translate(0,0)"/>
<path d="" fill="#FF7F7F" transform="translate(0,0)"/>
<path d="" fill="#FFFF00" transform="translate(0,0)"/>
<path d="" fill="#FF00FF" transform="translate(0,0)"/>
<path d="" fill="#FF00FF" transform="translate(0,0)"/>
<path d="" fill="#FFFF00" transform="translate(0,0)"/>
<path d="" fill="#FF00FF" transform="translate(0,0)"/>
<path d="" fill="#FFAA55" transform="translate(0,0)"/>
<path d="" fill="#FF7F7F" transform="translate(0,0)"/>
<path d="" fill="#FFAA55" transform="translate(0,0)"/>
<path d="" fill="#FF00FF" transform="translate(0,0)"/>
<path d="" fill="#FFFF00" transform="translate(0,0)"/>
<path d="" fill="#FF7F7F" transform="translate(0,0)"/>
<path d="" fill="#FFFF00" transform="translate(0,0)"/>
<path d="" fill="#FFFF00" transform="translate(0,0)"/>
<path d="" fill="#FF00FF" transform="translate(0,0)"/>
<path d="" fill="#FF0000" transform="translate(0,0)"/>
<path d="" fill="#AA5555" transform="translate(0,0)"/>
<path d="" fill="#FF7F7F" transform="translate(0,0)"/>
<path d="" fill="#FF0000" transform="translate(0,0)"/>
<path d="" fill="#FF5555" transform="translate(0,0)"/>
<path d="" fill="#7F7F7F" transform="translate(0,0)"/>
<path d="" fill="#FFFF00" transform="translate(0,0)"/>
<path d="" fill="#FFFF00" transform="translate(0,0)"/>
<path d="" fill="#7F7F7F" transform="translate(0,0)"/>
<path d="" fill="#000000" transform="translate(0,0)"/>
<path d="" fill="#000000" transform="translate(0,0)"/>
<path d="" fill="#FF0000" transform="translate(0,0)"/>
<path d="" fill="#AA5555" transform="translate(0,0)"/>
<path d="" fill="#FF7F7F" transform="translate(0,0)"/>
<path d="" fill="#000000" transform="translate(0,0)"/>
</svg>
